<?xml version="1.0" encoding="utf-8"?>
<!-- Generator: Adobe Illustrator 21.1.0, SVG Export Plug-In . SVG Version: 6.00 Build 0)  -->
<svg version="1.1" id="Layer_1" xmlns="http://www.w3.org/2000/svg" xmlns:xlink="http://www.w3.org/1999/xlink" x="0px" y="0px"
	 width="148px" height="40px" viewBox="0 0 148 40" style="enable-background:new 0 0 148 40;" xml:space="preserve">
<style type="text/css">
	.st0{fill:#5D20CC;}
</style>
<title>logo</title>
<desc>Created with Sketch.</desc>
<g id="Page-1">
	<g id="_x31_80---iPhone-6-Plus" transform="translate(-39.000000, -77.000000)">
		<g id="logo" transform="translate(39.000000, 77.000000)">
			<path id="nanno" class="st0" d="M55.7,29.2V13.3c2.3-1.1,4.7-1.7,7.3-1.7c2.1,0,3.9,0.5,5.1,1.6s1.9,2.7,1.9,4.7v11.3h-2.5V17.9
				c0-0.5,0-0.9-0.1-1.3c-0.1-0.4-0.3-0.8-0.5-1.2c-0.3-0.4-0.8-0.7-1.5-0.9S63.9,14,62.8,14c-1.5,0-2.9,0.3-4.5,0.7v14.4h-2.5
				C55.7,29.1,55.7,29.2,55.7,29.2z M74,23.9c0-0.8,0.1-1.5,0.4-2.1c0.3-0.7,0.7-1.2,1.1-1.5c0.4-0.3,0.9-0.7,1.6-0.9
				c0.7-0.3,1.2-0.5,1.7-0.7c0.5-0.1,1.1-0.3,1.7-0.3s1.2-0.1,1.5-0.1s0.7,0,1.1,0l2.8,0.1c0-1.6-0.4-2.7-1.3-3.3
				c-0.8-0.7-2.1-0.9-3.7-0.9c-1.9,0-3.6,0.3-5.1,0.8v-2.4c1.7-0.5,3.5-0.9,5.2-0.9c2.4,0,4.3,0.7,5.6,1.9c1.3,1.2,1.9,3.1,1.9,5.3
				V24c0,1.1-0.3,2-0.8,2.8s-1.2,1.3-2,1.7c-0.8,0.4-1.6,0.5-2.3,0.7c-0.7,0.1-1.5,0.3-2.1,0.3c-0.5,0-1.1,0-1.6-0.1
				s-1.2-0.3-1.9-0.4s-1.3-0.5-1.9-0.9s-0.9-0.9-1.3-1.6C74.1,25.7,74,24.8,74,23.9z M76.5,23.9c0,2.1,1.6,3.2,4.7,3.2l0,0
				c3.1,0,4.7-1.1,4.7-3.2v-3.3c-0.8-0.1-1.7-0.3-3.1-0.3C78.5,20.5,76.5,21.6,76.5,23.9z M93.1,29.2V13.3c2.3-1.1,4.7-1.7,7.3-1.7
				c2.1,0,3.9,0.5,5.1,1.6c1.2,1.1,1.9,2.7,1.9,4.7v11.3h-2.5V17.9c0-0.5,0-0.9-0.1-1.3c-0.1-0.4-0.3-0.8-0.5-1.2
				c-0.3-0.4-0.9-0.7-1.5-0.9c-0.5-0.3-1.5-0.4-2.5-0.4c-1.5,0-2.9,0.3-4.5,0.7v14.4h-2.5L93.1,29.2L93.1,29.2z M112.3,29.2V13.3
				c2.3-1.1,4.7-1.7,7.3-1.7c2.1,0,3.9,0.5,5.1,1.6c1.2,1.1,1.9,2.7,1.9,4.7v11.3H124V17.9c0-0.5,0-0.9-0.1-1.3
				c-0.1-0.4-0.3-0.8-0.5-1.2c-0.3-0.4-0.8-0.8-1.5-0.9c-0.7-0.1-1.5-0.4-2.5-0.4c-1.5,0-2.9,0.3-4.5,0.7v14.4h-2.5V29.2z
				 M130.7,20.5c0-1.7,0.3-3.2,0.7-4.5c0.4-1.3,1.2-2.1,2-2.8c0.8-0.7,1.7-1.1,2.5-1.3c0.8-0.3,1.9-0.4,2.8-0.4s2,0.1,2.9,0.4
				c0.9,0.3,1.7,0.7,2.5,1.3c0.8,0.7,1.5,1.5,2,2.8c0.5,1.3,0.7,2.8,0.7,4.5c0,1.7-0.3,3.2-0.7,4.5c-0.4,1.3-1.2,2.1-2,2.8
				c-0.8,0.7-1.7,1.1-2.5,1.3c-0.9,0.3-1.9,0.4-2.9,0.4s-2-0.1-2.8-0.4c-0.8-0.3-1.7-0.7-2.5-1.3c-0.8-0.7-1.5-1.5-2-2.8
				C130.8,23.7,130.7,22.3,130.7,20.5z M133.2,20.5c0,2.3,0.4,4,1.3,5.1s2.3,1.6,4.3,1.6s3.3-0.5,4.3-1.6c0.9-1.1,1.3-2.8,1.3-5.1
				s-0.4-4-1.3-5.1s-2.3-1.6-4.3-1.6s-3.3,0.5-4.3,1.6S133.2,18.3,133.2,20.5z"/>
			<path id="Combined-Shape" class="st0" d="M13.1,5.7c-2,0.5-3.5,1.5-4.7,2.9c-1.9,2.3-2.9,6-2.9,11.2s0.9,8.9,2.9,11.2
				c2,2.3,5.1,3.6,9.3,3.6s7.5-1.2,9.5-3.5s2.9-6.1,2.9-11.3s-0.9-8.9-2.9-11.3c-1.9-2.1-4.8-3.3-8.7-3.5c-0.1,0-0.1,0.1-0.3,0.1
				c-1.3,0.4-2.9,2.3-4,4.1c-1.7,3.2-0.9,4.8,1.5,5.5c2.4,0.5,5.1-0.3,5.5-1.6c0.1-0.7-0.1-1.3-0.8-1.6c-0.5-0.3-0.9-0.1-1.3,0.7
				c-0.4,0.8-1.3,1.1-2,0.7c-0.8-0.4-1.1-1.3-0.7-2.1c1.2-2.4,3.5-3.1,5.5-2c1.9,0.9,2.8,3.2,2.3,5.2c-0.9,3.2-5.3,4.7-9.2,3.7
				c-4.3-0.9-6.1-4.9-3.3-9.9C12,7.1,12.5,6.4,13.1,5.7z M0,19.9c0-3.9,0.5-7.2,1.6-10S4.1,5.1,6,3.7s3.7-2.3,5.6-2.9s4-0.8,6.3-0.8
				s4.4,0.3,6.3,0.8c1.9,0.5,3.7,1.5,5.6,2.9s3.3,3.5,4.4,6.1s1.6,6.1,1.6,10s-0.5,7.2-1.6,10c-1.1,2.8-2.5,4.8-4.4,6.1
				c-1.9,1.3-3.7,2.3-5.6,2.9c-1.9,0.5-4,0.8-6.3,0.8s-4.4-0.3-6.3-0.8c-2-0.7-3.9-1.6-5.6-2.9c-1.9-1.3-3.3-3.5-4.4-6.1
				S0,23.7,0,19.9z M15.6,28.9c0.1,0.1,0.7,0.3,0.8,0.4c0.7,0.3,0.9,0.4,1.5,0.4c0.5,0,2.9-1.1,3.5-1.2c0.8-0.3,1.1-1.1,0.9-1.9
				c-0.3-0.8-1.1-1.2-1.9-0.9s-1.2,0.4-2.1,0.8c-0.3,0.1-0.4,0.1-0.4,0.1H18c0,0-0.1,0-0.4-0.1c-0.1,0-0.5-0.3-0.8-0.4
				c-0.4-0.1-0.8-0.4-1.2-0.5c-0.7-0.3-1.6,0-1.9,0.8c-0.3,0.8,0,1.6,0.8,1.9C14.8,28.5,15.2,28.8,15.6,28.9z"/>
		</g>
	</g>
</g>
</svg>
